<svg xmlns="http://www.w3.org/2000/svg" xmlns:xlink="http://www.w3.org/1999/xlink" id="Group_710" data-name="Group 710" width="34.693" height="34.751" viewBox="0 0 34.693 34.751">
  <defs>
    <clipPath id="clip-path">
      <rect id="Rectangle_80" data-name="Rectangle 80" width="34.693" height="34.751" fill="#fff"/>
    </clipPath>
  </defs>
  <g id="Group_70" data-name="Group 70" clip-path="url(#clip-path)">
    <path id="Path_2470" data-name="Path 2470" d="M26.619,34.751a16.45,16.45,0,0,1-4.051-.9A32.453,32.453,0,0,1,12.6,28,40.7,40.7,0,0,1,2.422,15.734,22.625,22.625,0,0,1,.062,9.128a2.581,2.581,0,0,1,.4-2.082A37.912,37.912,0,0,1,5.794.77,5.688,5.688,0,0,1,6.5.225.884.884,0,0,1,7.757.307,3.486,3.486,0,0,1,8.311.9a47.179,47.179,0,0,1,4.229,7.024c.635,1.34.572,1.568-.541,2.559-.733.652-1.463,1.308-2.2,1.952a.505.505,0,0,0-.152.61,17.7,17.7,0,0,0,5.7,8.585A16.792,16.792,0,0,0,21.7,25.062a.455.455,0,0,0,.54-.141c.621-.709,1.257-1.405,1.875-2.116,1.074-1.234,1.311-1.306,2.771-.6a46.182,46.182,0,0,1,6.821,4.118c1.239.891,1.288,1.408.261,2.528a34.063,34.063,0,0,1-6.634,5.559,5.016,5.016,0,0,1-.717.338" transform="translate(0 0)" fill="#172450"/>
  </g>
</svg>