<svg xmlns="http://www.w3.org/2000/svg" xmlns:xlink="http://www.w3.org/1999/xlink" id="Group_709" data-name="Group 709" width="46.732" height="32.321" viewBox="0 0 46.732 32.321">
  <defs>
    <clipPath id="clip-path">
      <rect id="Rectangle_395" data-name="Rectangle 395" width="46.732" height="32.321" fill="#fff"/>
    </clipPath>
  </defs>
  <g id="Group_664" data-name="Group 664" clip-path="url(#clip-path)">
    <path id="Path_2764" data-name="Path 2764" d="M23.54.008C30.254.008,36.968.018,43.682,0a3.069,3.069,0,0,1,2.831,1.386c.432.665.461,1.113-.333,1.63C39.959,7.064,33.77,11.164,27.571,15.248c-1.132.746-2.243,1.53-3.412,2.214a1.369,1.369,0,0,1-1.186.043C15.532,12.645,8.121,7.742.687,2.872A.788.788,0,0,1,.4,1.641,2.907,2.907,0,0,1,3.183,0c3.25.014,6.5,0,9.75,0H23.54" transform="translate(-0.171 0)" fill="#172450"/>
    <path id="Path_2765" data-name="Path 2765" d="M23.645,99.807c-6.642,0-13.285-.01-19.927.007A3.167,3.167,0,0,1,.528,98.108c-.228-.455-.272-.8.279-1.145,5.8-3.643,11.582-7.323,17.39-10.955a1.307,1.307,0,0,1,1.116.07,32.219,32.219,0,0,1,3.037,2,1.958,1.958,0,0,0,2.626-.021,28.732,28.732,0,0,1,2.954-1.933,1.526,1.526,0,0,1,1.294-.05C34.981,89.658,40.7,93.295,46.45,96.891a.833.833,0,0,1,.357,1.3A2.926,2.926,0,0,1,44,99.806c-2.035,0-4.071,0-6.107,0H23.645" transform="translate(-0.289 -67.493)" fill="#172450"/>
    <path id="Path_2766" data-name="Path 2766" d="M0,28.1,15.709,38.465,0,48.4Z" transform="translate(0 -22.076)" fill="#172450"/>
    <path id="Path_2767" data-name="Path 2767" d="M144.65,38.447l15.72-10.372v20.3l-15.72-9.931" transform="translate(-113.638 -22.056)" fill="#172450"/>
  </g>
</svg>